<?xml version="1.0" standalone="no"?>
<!DOCTYPE svg PUBLIC "-//W3C//DTD SVG 20010904//EN"
 "http://www.w3.org/TR/2001/REC-SVG-20010904/DTD/svg10.dtd">
<svg version="1.0" xmlns="http://www.w3.org/2000/svg"
 width="480.000000pt" height="360.000000pt" viewBox="0 0 480.000000 360.000000"
 preserveAspectRatio="xMidYMid meet">

<g transform="translate(0.000000,360.000000) scale(0.100000,-0.100000)"
fill="#000000" stroke="none">
<path d="M0 1800 l0 -1800 2400 0 2400 0 0 1800 0 1800 -2400 0 -2400 0 0
-1800z m1602 1063 c17 -15 18 -49 18 -678 0 -501 3 -664 12 -673 7 -7 27 -12
44 -12 18 0 40 -7 48 -16 21 -20 20 -63 -1 -86 -15 -17 -45 -18 -550 -18 -528
0 -533 0 -554 21 -16 16 -20 28 -15 52 3 17 9 33 12 36 3 3 211 7 462 9 308 2
460 6 469 14 18 15 19 1278 1 1296 -17 17 -979 17 -996 0 -9 -9 -12 -165 -12
-639 0 -345 -3 -634 -6 -643 -8 -21 -40 -21 -48 0 -3 9 -6 308 -6 665 0 636 0
649 20 669 19 19 33 20 552 20 480 0 533 -2 550 -17z m-597 -253 c0 -24 -3
-25 -70 -28 -38 -2 -75 -8 -82 -14 -17 -14 -18 -144 0 -155 6 -4 44 -10 82
-13 67 -5 70 -6 70 -30 l0 -25 -129 -3 c-86 -2 -133 1 -142 9 -19 15 -20 259
-2 277 9 9 50 12 143 10 l130 -3 0 -25z m301 -51 c10 -17 -13 -36 -27 -22 -12
12 -4 33 11 33 5 0 12 -5 16 -11z m-480 -420 c10 -17 -13 -36 -27 -22 -12 12
-4 33 11 33 5 0 12 -5 16 -11z m2038 -55 c13 -13 16 -44 16 -181 0 -151 -2
-169 -22 -204 -19 -35 -66 -67 -121 -83 -9 -3 -22 -17 -29 -31 -10 -23 -8 -35
20 -91 27 -54 32 -76 32 -133 0 -90 11 -101 94 -101 72 0 86 -10 86 -60 0 -65
-35 -76 -107 -34 -54 31 -73 26 -73 -20 0 -59 16 -66 154 -66 98 0 126 -3 136
-15 10 -12 10 -18 0 -30 -11 -13 -58 -15 -316 -15 -348 0 -334 -4 -334 86 0
61 -22 94 -64 94 -45 0 -56 23 -56 119 0 62 4 93 15 107 15 19 15 19 30 0 10
-13 15 -42 15 -82 0 -69 17 -97 45 -74 11 9 15 35 15 103 0 101 -12 127 -61
127 -50 0 -59 28 -59 183 0 76 5 147 10 158 8 14 21 19 48 19 56 0 62 12 62
114 0 132 -12 126 241 126 175 0 210 -2 223 -16z m194 -402 c2 -256 1 -283
-14 -289 -39 -15 -44 18 -44 292 0 268 3 290 40 283 13 -3 15 -42 18 -286z
m-1752 157 c10 -17 -13 -36 -27 -22 -12 12 -4 33 11 33 5 0 12 -5 16 -11z
m2104 -479 c6 -11 10 -60 8 -112 -3 -82 -5 -93 -22 -96 -28 -6 -36 15 -36 106
0 107 23 153 50 102z m188 -79 c6 -39 -7 -71 -28 -71 -23 0 -35 37 -26 76 9
34 49 30 54 -5z m-360 -180 c6 -38 -7 -71 -27 -71 -20 0 -31 19 -31 54 0 46
52 62 58 17z"/>
</g>
</svg>
